
<svg xmlns="http://www.w3.org/2000/svg" xmlns:xlink="http://www.w3.org/1999/xlink" width="1434" height="616" viewBox="0 0 1434 616">
  <defs>
    <linearGradient id="linear-gradient" x1="-2.068" y1="3.901" x2="-2.068" y2="2.904" gradientUnits="objectBoundingBox">
      <stop offset="0" stop-color="#251200"/>
      <stop offset="1"/>
    </linearGradient>
  </defs>
  <g id="Group_867" data-name="Group 867" transform="translate(8731 -110)">
    <rect id="Rectangle_769" data-name="Rectangle 769" width="1434" height="616" rx="8" transform="translate(-8731 110)" fill="#2d333b"/>
    <text id="const_Aspiring_Developer_Name_:_Fenton_Treasure_Languages_:_JavaScript_Future_languages_:_C_Python_PHP_Skill_Set_:_Font_End_:_HTML_CSS_SASS_React_NextJs_TypeScript_Framer_Motion_TailwindCSS_Back_End_:_Grap" data-name="const Aspiring_Developer = {
  Name : Fenton Treasure,
  Languages : [ JavaScript ],
  Future_languages : C# | Python | PHP
  Skill_Set : {
      Font_End : [ HTML, CSS, SASS, React, NextJs, TypeScript, Framer Motion, TailwindCSS ],
      Back_End : [ Grap" transform="translate(-8707 153)" fill="#ff79c6" font-size="21" font-family="Cascadia Code" letter-spacing="0.008em"><tspan x="0" y="0">const</tspan><tspan y="0" fill="#f8f8f2"> </tspan><tspan y="0" fill="#bd93f9">Aspiring_Developer</tspan><tspan y="0" fill="#f8f8f2"> </tspan><tspan y="0">=</tspan><tspan y="0" fill="#f8f8f2"> </tspan><tspan y="0" fill="#f1fa8c">{</tspan><tspan fill="#f8f8f2"><tspan x="0" y="32" xml:space="preserve">  Name : </tspan><tspan y="32" fill="#50fa7b">Fenton Treasure</tspan><tspan y="32">,</tspan><tspan x="0" y="64" xml:space="preserve">  Languages </tspan><tspan y="64" fill="#ff79c6">:</tspan><tspan y="64"> </tspan><tspan y="64" fill="#ff79c6">[</tspan><tspan y="64"> </tspan><tspan y="64" fill="#f1fa8c">JavaScript</tspan><tspan y="64"> </tspan><tspan y="64" fill="#ff79c6">]</tspan><tspan y="64">,</tspan><tspan x="0" y="96" xml:space="preserve">  Future_languages : </tspan><tspan y="96" fill="#f1fa8c" font-weight="300">C#</tspan><tspan y="96" xml:space="preserve" font-weight="300"> | </tspan><tspan y="96" fill="#f1fa8c" font-weight="300">Python</tspan><tspan y="96" xml:space="preserve" font-weight="300"> | </tspan><tspan y="96" fill="#f1fa8c" font-weight="300">PHP</tspan><tspan x="0" y="128" xml:space="preserve">  Skill_Set </tspan><tspan y="128" fill="#ff79c6">:</tspan><tspan y="128"> </tspan><tspan y="128" fill="#8be9fd">{</tspan><tspan x="0" y="160" xml:space="preserve">      Font_End </tspan><tspan y="160" fill="#ff79c6">: [</tspan><tspan y="160"> </tspan><tspan y="160" fill="#f1fa8c" font-weight="300">HTML</tspan><tspan y="160" font-weight="300">, </tspan><tspan y="160" fill="#f1fa8c" font-weight="300">CSS</tspan><tspan y="160" font-weight="300">, </tspan><tspan y="160" fill="#f1fa8c" font-weight="300">SASS</tspan><tspan y="160" font-weight="300">, </tspan><tspan y="160" fill="#f1fa8c" font-weight="300">React</tspan><tspan y="160" font-weight="300">, </tspan><tspan y="160" fill="#f1fa8c" font-weight="300">NextJs</tspan><tspan y="160" font-weight="300">, </tspan><tspan y="160" fill="#f1fa8c" font-weight="300">TypeScript</tspan><tspan y="160" font-weight="300">, </tspan><tspan y="160" fill="#f1fa8c" font-weight="300">Framer Motion</tspan><tspan y="160" font-weight="300">, </tspan><tspan y="160" fill="#f1fa8c" font-weight="300">TailwindCSS</tspan><tspan y="160"> </tspan><tspan y="160" fill="#ff79c6">]</tspan><tspan y="160">,</tspan><tspan x="0" y="192" xml:space="preserve">      Back_End </tspan><tspan y="192" fill="#ff79c6">:</tspan><tspan y="192"> </tspan><tspan y="192" fill="#ff79c6">[</tspan><tspan y="192" fill="#f1fa8c"> </tspan><tspan y="192" fill="#f1fa8c" font-weight="300">GraphQL</tspan><tspan y="192" font-weight="300">, </tspan><tspan y="192" fill="#f1fa8c" font-weight="300">NodeJs</tspan><tspan y="192" font-weight="300">, </tspan><tspan y="192" fill="#f1fa8c" font-weight="300">Prisma</tspan><tspan y="192" font-weight="300">, </tspan><tspan y="192" fill="#f1fa8c" font-weight="300">MongoDB</tspan><tspan y="192" font-weight="300">, </tspan><tspan y="192" fill="#f1fa8c" font-weight="300">SQL</tspan><tspan y="192"> </tspan><tspan y="192" fill="#ff79c6">]</tspan><tspan y="192">,</tspan><tspan x="0" y="224" xml:space="preserve">      Design </tspan><tspan y="224" fill="#ff79c6">: </tspan><tspan y="224" fill="#ff79c6" font-weight="300">[</tspan><tspan y="224" font-weight="300"> </tspan><tspan y="224" fill="#f1fa8c" font-weight="300">Figma</tspan><tspan y="224" font-weight="300">, </tspan><tspan y="224" fill="#f1fa8c" font-weight="300">AdobeXD</tspan><tspan y="224" font-weight="300">, </tspan><tspan y="224" fill="#f1fa8c" font-weight="300">Adobe</tspan><tspan y="224" font-weight="300"> </tspan><tspan y="224" fill="#f1fa8c" font-weight="300">Illustrator</tspan><tspan y="224" font-weight="300">, </tspan><tspan y="224" fill="#f1fa8c" font-weight="300">Photoshop</tspan><tspan y="224" font-weight="300"> </tspan><tspan y="224" fill="#ff79c6" font-weight="300">]</tspan><tspan y="224">,</tspan><tspan x="0" y="256" xml:space="preserve">      Code_Editors </tspan><tspan y="256" fill="#ff79c6">:</tspan><tspan y="256"> </tspan><tspan y="256" fill="#ff79c6" font-weight="300">[</tspan><tspan y="256" font-weight="300"> </tspan><tspan y="256" fill="#ffb86c" font-weight="300">NeoVim</tspan><tspan y="256" xml:space="preserve" font-weight="300"> , </tspan><tspan y="256" fill="#ffb86c" font-weight="300">VSCode</tspan><tspan y="256" font-weight="300"> </tspan><tspan y="256" fill="#ff79c6" font-weight="300">]</tspan><tspan x="0" y="288" xml:space="preserve">  </tspan><tspan y="288" fill="#8be9fd">}</tspan><tspan x="0" y="320" xml:space="preserve"> Current_Goal </tspan><tspan y="320" fill="#ff79c6">:</tspan><tspan y="320"> </tspan><tspan y="320" fill="#f1fa8c" font-weight="300">Find a Role to develop my skillset </tspan><tspan x="0" y="352" xml:space="preserve"> Contact </tspan><tspan y="352" fill="#ff79c6">:</tspan><tspan y="352"> </tspan><tspan y="352" fill="#ff79c6">{</tspan><tspan x="0" y="384" xml:space="preserve">    Email : </tspan><tspan y="384" fill="#f1fa8c">FentonCodes@gmail.com</tspan><tspan y="384" xml:space="preserve"> ,</tspan><tspan x="0" y="416" xml:space="preserve">    LinkdIn : </tspan><tspan y="416" fill="#bd93f9">Null</tspan><tspan y="416">,</tspan><tspan x="0" y="448" xml:space="preserve">    Instagram : </tspan><tspan y="448" fill="#bd93f9">Null</tspan><tspan y="448">,</tspan><tspan x="0" y="480"> </tspan><tspan y="480" fill="#ff79c6">}</tspan></tspan><tspan fill="#f1fa8c"><tspan x="0" y="512">}</tspan><tspan x="0" y="544"></tspan></tspan></text>
    <g id="Group_866" data-name="Group 866" transform="translate(-525.554 1434.552)" opacity="0.03">
      <path id="bxl-tailwind-css" d="M75.988,21.781a18.923,18.923,0,0,1-8.565-6.009A25.873,25.873,0,0,0,46.841,6.042,21.165,21.165,0,0,0,24.421,23.978,14.484,14.484,0,0,1,40.115,17.3,19.371,19.371,0,0,1,48.68,23.35a25.873,25.873,0,0,0,20.582,9.6A21.165,21.165,0,0,0,91.682,15.01a14.349,14.349,0,0,1-15.694,6.771ZM17.694,44.112a18.923,18.923,0,0,1,8.565,6.009,25.873,25.873,0,0,0,20.582,9.73A21.165,21.165,0,0,0,69.262,41.915,14.484,14.484,0,0,1,53.567,48.6,19.371,19.371,0,0,1,45,42.542a26.008,26.008,0,0,0-20.582-9.6A21.165,21.165,0,0,0,2,50.883a14.349,14.349,0,0,1,15.694-6.771Z" transform="translate(-7658.259 -794.491)" fill="#8be9fd"/>
      <path id="graphql" d="M47.665,10.3,66.142,20.966a8.013,8.013,0,1,1,7.692,13.294V55.606a8.012,8.012,0,1,1-7.878,13.119l-18.365,10.6a8.008,8.008,0,1,1-15.288.258L13.831,68.921A8.013,8.013,0,1,1,6.14,55.605V34.261a8.014,8.014,0,1,1,7.683-13.3L32.306,10.286a8.008,8.008,0,1,1,15.359.012ZM45.74,13.585,64.261,24.278a8,8,0,0,0,5.764,9.963V55.613c-.1.025-.207.053-.31.082L45.525,13.8q.11-.1.215-.214ZM34.455,13.8,10.265,55.7q-.157-.045-.316-.084V34.242a8,8,0,0,0,5.761-9.975l18.516-10.69q.112.116.229.227Zm7.77,1.9L66.409,57.588a8.039,8.039,0,0,0-2.254,3.91H15.82a7.973,7.973,0,0,0-2.252-3.9L37.757,15.7a8.092,8.092,0,0,0,4.469,0ZM45.91,76.457l18.4-10.624q-.083-.26-.148-.525H15.81q-.038.156-.083.31L34.218,76.293a8.019,8.019,0,0,1,11.692.163Z" transform="translate(-7645.373 -1039.336)" fill="#ff79c6" fill-rule="evenodd"/>
      <path id="prisma-3" d="M73.923,68.459,43.02,2.833A4.96,4.96,0,0,0,38.8.009,4.9,4.9,0,0,0,34.282,2.35L.765,56.637a5.077,5.077,0,0,0,.056,5.45L17.208,87.463a5.27,5.27,0,0,0,5.919,2.177L70.682,75.573a5.212,5.212,0,0,0,3.273-2.826,5.1,5.1,0,0,0-.029-4.29ZM67,71.274,26.651,83.206a1.693,1.693,0,0,1-2.156-1.943L38.912,12.231a1.393,1.393,0,0,1,2.617-.3L68.217,68.605A1.927,1.927,0,0,1,67,71.274Z" transform="translate(-7685.831 -1279.62)" fill-rule="evenodd"/>
      <g id="adobe-illustrator-cs6" transform="translate(-7018.401 -1296.199)">
        <path id="Path_676" data-name="Path 676" d="M17.409,8.256H107.27V98.117H17.409Z" transform="translate(-17.409 -8.256)" fill="#ffb86c"/>
        <path id="Path_677" data-name="Path 677" d="M79.112,83.039h7.8l-3.9-15.5ZM53.666,45v74.518h74.8V45Zm37.527,55.034L88.339,89.961H77.78l-2.854,10.073H67.7L77.875,64.42v-3.9h9.7l11.606,39.514Zm19.217,0h-7.8V69.976h7.8Zm-3.853-33.665a4.095,4.095,0,1,1,4.043-4.094A4.069,4.069,0,0,1,106.557,66.369Z" transform="translate(-46.072 -37.304)" fill="url(#linear-gradient)"/>
      </g>
      <g id="adobe-xd-1" transform="translate(-7871.948 -1046.035)">
        <path id="Path_678" data-name="Path 678" d="M73.948,87.614H15.913A15.9,15.9,0,0,1,0,71.7V15.913A15.9,15.9,0,0,1,15.913,0H73.948A15.9,15.9,0,0,1,89.861,15.913V71.7A15.9,15.9,0,0,1,73.948,87.614Z" fill="#ff79c6"/>
        <path id="Path_679" data-name="Path 679" d="M174.084,185.64H118.009A13.836,13.836,0,0,1,104.2,171.826V118.014A13.836,13.836,0,0,1,118.009,104.2h56.039a13.81,13.81,0,0,1,13.809,13.814v53.775a13.789,13.789,0,0,1-13.772,13.85Z" transform="translate(-101.113 -101.113)" fill="#2e001f"/>
        <path id="Path_680" data-name="Path 680" d="M487.329,616.134,498.867,640c.206.354.083.711-.249.711h-7.171a.806.806,0,0,1-.866-.575c-2.638-5.857-5.316-11.714-8.077-18.014h-.083c-2.472,5.946-5.194,12.2-7.828,18.06a.79.79,0,0,1-.743.49h-6.792c-.411,0-.455-.354-.245-.622L478.1,616.892l-10.917-23.427c-.249-.354,0-.622.245-.622h7.088a.645.645,0,0,1,.74.49c2.595,5.857,5.233,11.893,7.705,17.793h.083c2.389-5.857,5.027-11.935,7.582-17.75.206-.354.328-.575.744-.575H498c.328,0,.455.268.249.622Zm13.559,7.233c0-10.338,6.388-18.414,16.521-18.414a16.871,16.871,0,0,1,2.144.089V593.286a.427.427,0,0,1,.411-.443h6.51c.329,0,.412.132.412.353v40.735a34.126,34.126,0,0,0,.206,4.349c0,.268-.083.353-.328.49a23.077,23.077,0,0,1-10.549,2.573c-8.943.039-15.331-5.9-15.327-17.975Zm18.661-11.356a5.8,5.8,0,0,0-2.389-.443c-5.193,0-8.816,4.3-8.816,11.45,0,8.166,3.71,11.45,8.365,11.45a7.221,7.221,0,0,0,2.844-.49V612.011Z" transform="translate(-452.559 -574.954)" fill="#ffd9f2"/>
      </g>
      <g id="Group_864" data-name="Group 864" transform="translate(-7802.769 -850.845)">
        <circle id="Ellipse_14" data-name="Ellipse 14" cx="44.93" cy="44.93" r="44.93" transform="translate(0 0)" fill="#fff"/>
        <g id="next-js">
          <path id="Path_2117" data-name="Path 2117" d="M42.488.349c-.193.018-.808.079-1.362.123A45.037,45.037,0,0,0,8.836,19.094,44.481,44.481,0,0,0,.9,38.726,34.394,34.394,0,0,0,.5,45.27a34.394,34.394,0,0,0,.4,6.544,45.117,45.117,0,0,0,30.735,36.3,47.5,47.5,0,0,0,9.487,1.968,82.763,82.763,0,0,0,8.608,0,45.364,45.364,0,0,0,16.189-4.735c.773-.4.922-.5.817-.589-.07-.053-3.364-4.471-7.317-9.812l-7.185-9.706-9-13.325C38.28,44.594,34.2,38.6,34.169,38.6s-.07,5.912-.088,13.141c-.026,12.658-.035,13.167-.193,13.466a1.6,1.6,0,0,1-.773.8c-.281.141-.527.167-1.853.167h-1.52l-.4-.255a1.642,1.642,0,0,1-.589-.641l-.184-.4.018-17.612.026-17.621.272-.343a2.41,2.41,0,0,1,.65-.536c.36-.176.5-.193,2.02-.193,1.792,0,2.091.07,2.556.58.132.141,5.007,7.484,10.84,16.33S58.756,66.414,62.673,72.343l7.115,10.778.36-.237a46.125,46.125,0,0,0,9.232-8.1,44.731,44.731,0,0,0,10.576-22.97,34.4,34.4,0,0,0,.4-6.544,34.4,34.4,0,0,0-.4-6.544,45.117,45.117,0,0,0-30.735-36.3A47.172,47.172,0,0,0,49.866.463c-.843-.088-6.65-.184-7.379-.114ZM60.881,27.527a1.772,1.772,0,0,1,.887,1.037c.07.228.088,5.112.07,16.119l-.026,15.794-2.785-4.269-2.793-4.269V40.457c0-7.423.035-11.595.088-11.8a1.792,1.792,0,0,1,.87-1.107c.36-.184.492-.2,1.871-.2,1.3,0,1.528.018,1.818.176Z" transform="translate(-0.5 -0.325)" fill="#282a36"/>
          <path id="Path_2118" data-name="Path 2118" d="M759.479,943.187c-.312.2-.41.33-.134.178.2-.116.517-.357.464-.365A1.832,1.832,0,0,0,759.479,943.187Zm-.615.4c-.161.125-.161.134.036.036a.541.541,0,0,0,.2-.134C759.095,943.419,759.051,943.437,758.863,943.588Zm-.446.268c-.16.125-.16.134.036.036a.542.542,0,0,0,.2-.134C758.649,943.687,758.6,943.7,758.417,943.856Zm-.446.268c-.161.125-.161.134.036.036a.549.549,0,0,0,.2-.134C758.2,943.954,758.159,943.972,757.971,944.124Zm-.678.357c-.339.179-.321.25.018.08a.94.94,0,0,0,.268-.178C757.579,944.32,757.57,944.329,757.294,944.48Z" transform="translate(-690.624 -860.304)" fill="#282a36"/>
        </g>
      </g>
      <path id="sass-1" d="M77.356,38.679a18.513,18.513,0,0,0-8.144,1.9,16.752,16.752,0,0,1-1.825-4.213,11.651,11.651,0,0,1-.158-3.546A28.413,28.413,0,0,1,68.3,28.99c-.018-.158-.193-.93-2-.948s-3.37.351-3.546.825A20.159,20.159,0,0,0,62,31.552c-.316,1.65-3.616,7.495-5.494,10.567a10.78,10.78,0,0,1-1.246-3.089,11.65,11.65,0,0,1-.158-3.545,28.425,28.425,0,0,1,1.071-3.826c-.018-.158-.193-.93-2-.948s-3.37.351-3.546.825-.369,1.6-.755,2.686c-.369,1.088-4.757,10.847-5.9,13.393-.579,1.3-1.088,2.334-1.457,3.037s-.018.053-.053.123c-.316.6-.491.93-.491.93v.018c-.246.439-.509.86-.632.86a5.853,5.853,0,0,1,.035-2.791c.649-3.388,2.229-8.671,2.212-8.864,0-.088.3-1.018-1.018-1.492a1.6,1.6,0,0,0-1.843.316c-.105,0-.193.281-.193.281s1.422-5.95-2.721-5.95c-2.6,0-6.178,2.826-7.951,5.406-1.123.614-3.51,1.913-6.038,3.3-.965.527-1.966,1.088-2.914,1.6l-.193-.211C15.695,38.819,6.409,35.028,6.8,27.831c.14-2.615,1.053-9.513,17.833-17.868C38.373,3.117,49.378,5,51.291,9.173c2.721,5.968-5.88,17.061-20.168,18.658-5.441.614-8.3-1.492-9.022-2.282-.755-.825-.86-.86-1.141-.7-.456.246-.176.983,0,1.422a8.473,8.473,0,0,0,5.16,4.055c2.615.86,9,1.334,16.728-1.65C51.5,25.321,58.26,16.018,56.276,8.243,54.258.326,41.128-2.271,28.719,2.134c-7.39,2.633-15.394,6.74-21.151,12.129C.722,20.652-.366,26.234.091,28.551c1.6,8.267,12.989,13.656,17.552,17.64-.228.123-.439.246-.632.351-2.282,1.123-10.97,5.669-13.147,10.479-2.457,5.441.386,9.356,2.282,9.882,5.863,1.632,11.865-1.3,15.113-6.126C24.488,55.95,24.1,49.684,22.61,46.823l-.053-.105,1.79-1.053c1.159-.685,2.3-1.316,3.3-1.861a21.854,21.854,0,0,0-1.176,5.968c-.246,3.089,1.018,7.091,2.686,8.671a2.971,2.971,0,0,0,2.159.7c1.931,0,2.808-1.6,3.774-3.51C36.284,53.3,37.337,50.6,37.337,50.6s-1.316,7.319,2.282,7.319c1.316,0,2.633-1.7,3.23-2.58v.018s.035-.053.105-.176.144-.22.211-.333v-.035c.527-.913,1.7-3,3.458-6.459,2.264-4.458,4.441-10.04,4.441-10.04a32.036,32.036,0,0,0,.86,3.616A34.6,34.6,0,0,0,53.8,46.138c-.527.737-.843,1.159-.843,1.159l.018.018c-.421.562-.9,1.159-1.386,1.755a51.013,51.013,0,0,0-4.213,5.283,1.446,1.446,0,0,0,.386,1.931,3.514,3.514,0,0,0,2.212.351,9.852,9.852,0,0,0,3.3-.755,11.428,11.428,0,0,0,2.844-1.492,6.331,6.331,0,0,0,2.721-5.6A11.258,11.258,0,0,0,57.8,44.84c.158-.228.316-.457.474-.7a74.094,74.094,0,0,0,4.915-8.513,32.039,32.039,0,0,0,.86,3.616,25.351,25.351,0,0,0,1.6,3.616,15.6,15.6,0,0,0-4.792,6.2c-1.036,2.984-.228,4.335,1.3,4.651a4.672,4.672,0,0,0,2.4-.491A10.9,10.9,0,0,0,67.6,51.65c1.755-1.3,3.44-3.107,3.353-5.547a10.633,10.633,0,0,0-.755-3.282,17.1,17.1,0,0,1,8.706-1c7.811.913,9.355,5.792,9.057,7.828a5.243,5.243,0,0,1-2.475,3.51c-.544.333-.72.457-.667.7.07.369.316.351.79.281a6.076,6.076,0,0,0,4.248-5.424c.211-4.828-4.371-10.093-12.5-10.041ZM17.116,58.987c-2.58,2.826-6.214,3.9-7.758,2.984-1.667-.965-1.018-5.125,2.159-8.127A41.3,41.3,0,0,1,17.608,49.3c.369-.228.93-.562,1.6-.965a1.871,1.871,0,0,1,.176-.105c.123-.07.263-.158.4-.246A11.2,11.2,0,0,1,17.116,58.987ZM35.985,46.156c-.9,2.194-2.791,7.828-3.932,7.512-.983-.263-1.58-4.529-.193-8.741a19.514,19.514,0,0,1,3.072-5.635c1.422-1.58,2.966-2.106,3.353-1.457C38.741,38.679,36.547,44.787,35.985,46.156ZM51.554,53.6c-.386.193-.737.333-.9.228-.123-.07.158-.333.158-.333s1.948-2.089,2.721-3.054c.439-.562.965-1.211,1.527-1.948V48.7c0,2.527-2.422,4.212-3.51,4.9ZM63.56,50.86c-.281-.211-.246-.86.7-2.9a10.853,10.853,0,0,1,2.668-3.44,4.342,4.342,0,0,1,.263,1.51A4.939,4.939,0,0,1,63.56,50.86Z" transform="matrix(1, 0.017, -0.017, 1, -8204.271, -1126.615)" fill="#ff79c6"/>
      <g id="material-ui-1" transform="translate(-6876.09 -788.503)">
        <path id="Path_2121" data-name="Path 2121" d="M0,38.263V0L33.138,19.131V31.886L11.046,19.131V44.64Z" fill="#00b0ff"/>
        <path id="Path_2122" data-name="Path 2122" d="M225,19.131,258.138,0V38.263L236.046,51.017,225,44.64l22.092-12.754V19.131L225,31.886Z" transform="translate(-190.966)" fill="#0081cb"/>
        <path id="Path_2123" data-name="Path 2123" d="M225,303.1v12.754l22.092,12.754V315.854Z" transform="translate(-191.116 -257.274)" fill="#00b0ff"/>
        <path id="Path_2124" data-name="Path 2124" d="M375,71.334,408.138,51.88V25.94l-11.046,6.485v12.97L375,58.365Zm22.092-51.88V6.485L408.138,0V12.97Z" transform="translate(-318.277)" fill="#0081cb"/>
      </g>
      <g id="css-3" transform="translate(-7097.648 -805.902)">
        <path id="Path_2125" data-name="Path 2125" d="M7.1,80.567,0,0,84.793.162l-7.508,80.4L42.717,89.861Z" fill="#1b73ba"/>
        <path id="Path_2126" data-name="Path 2126" d="M62.468,85.263V12.085l35,.106L91.226,77.664Z" transform="translate(-19.849 -3.802)" fill="#1c88c7"/>
        <path id="Path_2127" data-name="Path 2127" d="M75.942,27.064H22.3l1.453,9.251H49.207L24.158,45.823l1.453,8.943H62.517L61.179,67.254l-12.5,2.159-11.333-2.57-.872-7.093h-10.4L27.47,74.5,49.788,80l21.388-6.013,2.732-28.833H51.3l24.642-9.045Z" transform="translate(-7.015 -8.514)" fill="#fff"/>
      </g>
      <g id="typescript" transform="translate(-8069.266 -985.539)">
        <path id="Path_2128" data-name="Path 2128" d="M0,44.93V0H89.861V89.861H0" fill="#007acc"/>
        <path id="Path_2129" data-name="Path 2129" d="M87.7,186.355v3.778H99.753v34.306h8.553V190.133H120.36v-3.709a28.9,28.9,0,0,0-.093-3.825c0-.069-7.348-.093-16.272-.093l-16.226.069v3.8Zm54.171-3.871a11.223,11.223,0,0,1,5.795,3.315,14.586,14.586,0,0,1,2.225,2.967c0,.139-4.01,2.851-6.444,4.358-.093.07-.464-.325-.834-.927a5.3,5.3,0,0,0-4.358-2.6c-2.782-.185-4.636,1.275-4.636,3.709a3.662,3.662,0,0,0,.417,1.762c.626,1.275,1.785,2.04,5.378,3.616,6.629,2.851,9.5,4.729,11.242,7.417a13.506,13.506,0,0,1,1.089,11.288c-1.484,3.871-5.1,6.49-10.269,7.348a28.919,28.919,0,0,1-7.07-.069,17.5,17.5,0,0,1-9.434-4.937,16.571,16.571,0,0,1-2.411-3.57l.881-.556,3.477-2.017,2.619-1.53.6.811a12.613,12.613,0,0,0,3.477,3.384c3.013,1.553,7.047,1.344,9.04-.464a3.473,3.473,0,0,0,1.229-2.781,3.577,3.577,0,0,0-.7-2.364c-.742-1.02-2.225-1.854-6.4-3.709-4.8-2.04-6.838-3.338-8.739-5.331a13.168,13.168,0,0,1-2.55-4.636,17.752,17.752,0,0,1-.139-5.957c1-4.636,4.5-7.881,9.5-8.808a22.467,22.467,0,0,1,7.047.232Z" transform="translate(-70.229 -142.691)" fill="#fff"/>
      </g>
      <g id="mongodb-icon-1" transform="translate(-7851.938 -1324.552)">
        <path id="Path_2130" data-name="Path 2130" d="M15.944.087,18.328,4.6a13.452,13.452,0,0,0,1.8,2.254,62.84,62.84,0,0,1,5.594,6.369A55.5,55.5,0,0,1,34.432,30.9a43.757,43.757,0,0,1,1.848,12A42.505,42.505,0,0,1,24,74.155a35.517,35.517,0,0,1-4.383,3.772c-.826,0-1.217-.638-1.558-1.225a10.132,10.132,0,0,1-1.217-3.527,17.154,17.154,0,0,1-.391-4.457v-.686c-.067-.146-.8-67.6-.505-67.944Z" transform="translate(4.076 0.157)" fill="#599636"/>
        <path id="Path_2131" data-name="Path 2131" d="M28.6.1c-.1-.2-.2-.048-.293.048a4.55,4.55,0,0,1-.826,2.7A12.883,12.883,0,0,1,25.336,5a46.9,46.9,0,0,0-10.46,13.422,54.2,54.2,0,0,0-6.03,21.942A73.479,73.479,0,0,0,10.6,55.84,46.964,46.964,0,0,0,22.81,75.189a53.462,53.462,0,0,0,4.327,3.724c.438,0,.486-.393.586-.686a13.509,13.509,0,0,0,.438-1.911l.977-7.346Z" transform="translate(-8.813 0)" fill="#6cac48"/>
        <path id="Path_2132" data-name="Path 2132" d="M19.221,37.43a6.66,6.66,0,0,1,1.217-2.967A3.071,3.071,0,0,1,19.076,33.2a9.031,9.031,0,0,1-.726-1.605,27.782,27.782,0,0,1-1.022-6.275V24.053a6.066,6.066,0,0,0-.293,2.094,48.489,48.489,0,0,1-.877,6.568,5.844,5.844,0,0,1-.782,2.529.969.969,0,0,0,.047.341,29.052,29.052,0,0,1,1.265,7.883v.977c0,1.167-.047.921.921,1.312a4.267,4.267,0,0,1,1.217.486c.293,0,.341-.243.341-.438L19.023,44.2V39.722a11.842,11.842,0,0,1,.2-2.289Z" transform="translate(3.07 43.618)" fill="#c2bfbf"/>
      </g>
      <g id="strapi-2" transform="translate(-7321.273 -842.792)">
        <path id="Path_2133" data-name="Path 2133" d="M109.947,63.4V33.526a1.927,1.927,0,0,0-1.926-1.926H78.178V.76h60.649a1.927,1.927,0,0,1,1.927,1.927V63.4Z" transform="translate(-50.893 -0.76)" fill="#8e75ff" fill-rule="evenodd"/>
        <path id="Path_2134" data-name="Path 2134" d="M29.34.76V30.876H1.526A.941.941,0,0,1,.861,29.27ZM60.363,89.776V61.933H90.446L61.969,90.441a.941.941,0,0,1-1.606-.665ZM29.34,30.876H59.422a.941.941,0,0,1,.941.941V61.933H31.221a1.881,1.881,0,0,1-1.881-1.881Z" transform="translate(-0.586 -0.76)" fill="#8e75ff" fill-rule="evenodd" opacity="0.405"/>
      </g>
      <g id="postgresql" transform="translate(-7201.774 -1105.389)">
        <path id="Path_2135" data-name="Path 2135" d="M89.92,55.861a4.559,4.559,0,0,0-3.785-3.049,8.666,8.666,0,0,0-3.02.167,27.143,27.143,0,0,1-4.653.612,89.75,89.75,0,0,0,9.5-22.6c3.153-12.206,1.468-17.766-.5-20.281C82.253,4.053,74.652.477,65.481.367a38.954,38.954,0,0,0-11.427,1.6,42.544,42.544,0,0,0-6.682-.612A21.723,21.723,0,0,0,35.734,4.224a53.068,53.068,0,0,0-8.22-2.063C19.476.841,13,1.869,8.26,5.216,2.523,9.269-.137,16.311.355,26.145c.156,3.122,1.9,12.623,4.653,21.632a74.709,74.709,0,0,0,5.009,12.783C12.49,65.246,15.136,68,18.106,69a7.95,7.95,0,0,0,7.87-1.707,6.882,6.882,0,0,0,1.655,1.424,11.012,11.012,0,0,0,3.123,1.316,16.771,16.771,0,0,0,10.917-.65c.02.567.035,1.109.048,1.577.021.759.042,1.5.07,2.2.189,4.706.509,8.365,1.458,10.925.052.141.122.355.2.583a13.152,13.152,0,0,0,3.278,5.774,9.778,9.778,0,0,0,6.916,2.571,15.543,15.543,0,0,0,3.233-.36c3.455-.741,7.38-1.869,10.218-5.911,2.684-3.821,3.989-9.577,4.225-18.645.031-.257.059-.5.086-.735l.056-.479.632.056.163.011a25.02,25.02,0,0,0,10.465-1.813c2.088-.969,8.78-4.5,7.2-9.272" transform="translate(-0.297 -0.364)"/>
        <path id="Path_2136" data-name="Path 2136" d="M90.529,63.613c-10.394,2.145-11.109-1.375-11.109-1.375,10.974-16.288,15.562-36.963,11.6-42.024-10.8-13.8-29.5-7.275-29.809-7.106l-.1.018A37.061,37.061,0,0,0,54.18,12.4,17.125,17.125,0,0,0,43.2,15.69S9.85,1.946,11.4,32.975c.33,6.6,9.459,49.946,20.347,36.854,3.98-4.788,7.825-8.835,7.825-8.835a10.092,10.092,0,0,0,6.593,1.684l.186-.158a7.267,7.267,0,0,0,.074,1.864c-2.805,3.135-1.981,3.685-7.588,4.84-5.674,1.17-2.341,3.252-.165,3.8,2.638.66,8.742,1.594,12.866-4.18l-.164.659c1.1.881,1.87,5.727,1.741,10.121s-.216,7.41.65,9.766,1.729,7.658,9.1,6.078c6.159-1.32,9.351-4.742,9.8-10.449.315-4.057,1.028-3.457,1.073-7.085l.572-1.717c.659-5.5.1-7.274,3.9-6.449l.923.081A21.015,21.015,0,0,0,87.724,68.4c4.62-2.144,7.36-5.725,2.8-4.784h0" transform="translate(-7.185 -7.254)" fill="#336791"/>
        <path id="Path_2137" data-name="Path 2137" d="M103.516,80.284a3.476,3.476,0,0,0-2.387.34.876.876,0,0,0-.362.583,1.7,1.7,0,0,0,.413,1.114,3.12,3.12,0,0,0,1.981,1.236,2.257,2.257,0,0,0,.317.022,2.569,2.569,0,0,0,2.433-1.655c.122-.88-1.155-1.467-2.394-1.639m33.453.028c-.1-.69-1.324-.887-2.489-.725s-2.292.687-2.2,1.379a2.362,2.362,0,0,0,2.2,1.456,2.1,2.1,0,0,0,.294-.02,2.831,2.831,0,0,0,1.6-.874,1.761,1.761,0,0,0,.6-1.215" transform="translate(-66.921 -51.761)" fill="#fff"/>
        <path id="Path_2138" data-name="Path 2138" d="M91.655,60.87c-.4-1.2-1.676-1.588-3.8-1.15-6.308,1.3-8.567.4-9.308-.146A86.786,86.786,0,0,0,89.658,34.643,47.389,47.389,0,0,0,91.3,23.922c.052-3.317-.513-5.754-1.678-7.243-4.7-6-11.586-9.221-19.928-9.31A34.128,34.128,0,0,0,58.181,9.186,28.706,28.706,0,0,0,51.7,8.353a18.72,18.72,0,0,0-11.107,3.063,49.566,49.566,0,0,0-9.026-2.368C24.254,7.871,18.443,8.763,14.3,11.7c-4.948,3.507-7.232,9.776-6.789,18.631.149,2.979,1.846,12.145,4.524,20.923C15.556,62.809,19.388,69.35,23.419,70.7a5.1,5.1,0,0,0,1.616.267c1.471,0,3.274-.663,5.15-2.919q3.432-4.119,7.1-8.035a11.433,11.433,0,0,0,5.107,1.374c0,.047.008.093.012.139q-.46.549-.9,1.113c-1.234,1.567-1.491,1.893-5.462,2.711-1.13.233-4.13.852-4.175,2.956-.048,2.3,3.547,3.265,3.957,3.367a16.939,16.939,0,0,0,4.114.534,11.968,11.968,0,0,0,8.238-3.078c-.069,8.2.273,16.273,1.256,18.733.806,2.015,2.774,6.938,8.991,6.937a14.418,14.418,0,0,0,3.021-.343c6.488-1.391,9.306-4.26,10.4-10.586.583-3.38,1.584-11.452,2.055-15.782a12.709,12.709,0,0,0,3.655.452,21.75,21.75,0,0,0,8.3-1.582c2.344-1.089,6.575-3.762,5.808-6.084ZM76.2,31.612a26.272,26.272,0,0,1-.384,3.65,33.723,33.723,0,0,0-.46,4.285,32.506,32.506,0,0,0,.339,4.845c.388,3.231.787,6.558-.755,9.841a12.8,12.8,0,0,1-.683-1.405c-.192-.465-.608-1.211-1.184-2.244-2.242-4.022-7.491-13.441-4.8-17.284.8-1.144,2.832-2.32,7.932-1.687ZM70.022,9.957c7.474.165,13.386,2.962,17.572,8.313,3.21,4.1-.325,22.78-10.559,38.892q-.154-.2-.31-.391l-.13-.162c2.645-4.369,2.128-8.693,1.667-12.525a30.047,30.047,0,0,1-.322-4.454,31.554,31.554,0,0,1,.432-3.974,25.105,25.105,0,0,0,.4-4.92,2.039,2.039,0,0,0,.043-.693c-.166-1.768-2.184-7.06-6.3-11.85a28.368,28.368,0,0,0-10.01-7.529,33.74,33.74,0,0,1,7.512-.707ZM28.2,66.392c-2.067,2.486-3.494,2.01-3.964,1.853C21.178,67.224,17.629,60.757,14.5,50.5c-2.707-8.873-4.289-17.8-4.415-20.3-.4-7.913,1.522-13.428,5.7-16.392,6.8-4.823,17.974-1.936,22.465-.472-.064.064-.132.123-.2.188-7.37,7.446-7.195,20.167-7.177,20.944,0,.3.025.725.059,1.309a52.653,52.653,0,0,1-.268,10.631,13.449,13.449,0,0,0,3.542,11.254q.437.455.917.865c-1.263,1.353-4.007,4.345-6.928,7.86ZM36.075,55.88a10.881,10.881,0,0,1-2.849-9.109,55.043,55.043,0,0,0,.288-11.142c-.019-.312-.035-.585-.044-.8,1.077-.955,6.066-3.629,9.624-2.814a3.916,3.916,0,0,1,3.024,3.38c2.129,9.85.282,13.955-1.2,17.254-.306.68-.595,1.322-.841,1.987l-.191.514A33.689,33.689,0,0,0,42.668,58.8a9.184,9.184,0,0,1-6.593-2.923Zm.373,13.283a5.706,5.706,0,0,1-1.723-.741,8.409,8.409,0,0,1,1.835-.547c4.672-.962,5.394-1.641,6.97-3.643.361-.459.771-.979,1.338-1.613h0c.845-.946,1.231-.786,1.932-.495a2.734,2.734,0,0,1,1.345,1.731,1.927,1.927,0,0,1-.165,1.619C44.69,70.085,39.893,70.025,36.448,69.163ZM60.9,91.927c-5.716,1.225-7.74-1.692-9.074-5.028-.861-2.153-1.284-11.864-.984-22.587a1.293,1.293,0,0,0-.056-.41,5.417,5.417,0,0,0-.16-.758,5.235,5.235,0,0,0-2.839-3.407,4,4,0,0,0-2.613-.316,31.6,31.6,0,0,1,1.125-3.37l.192-.517c.216-.583.488-1.187.776-1.826,1.553-3.452,3.68-8.179,1.372-18.859-.865-4-3.752-5.954-8.129-5.5a18.753,18.753,0,0,0-6.222,1.938c-.257.13-.493.257-.713.379.334-4.031,1.6-11.563,6.32-16.329,2.974-3,6.934-4.482,11.76-4.4A24.924,24.924,0,0,1,70.7,20.041a28.921,28.921,0,0,1,5.212,8.941c-4.819-.49-8.1.461-9.757,2.837-3.614,5.169,1.977,15.2,4.665,20.022.493.884.918,1.647,1.052,1.972a17.9,17.9,0,0,0,2.835,4.572c.254.317.5.624.687.893-1.459.421-4.081,1.394-3.842,6.255-.193,2.439-1.563,13.86-2.259,17.9-.919,5.331-2.88,7.316-8.393,8.5ZM84.76,64.612A18.818,18.818,0,0,1,78.4,65.937c-2.62.123-3.955-.294-4.268-.55-.147-3.03.98-3.346,2.173-3.681.187-.053.37-.1.547-.166a4.452,4.452,0,0,0,.362.265c2.106,1.391,5.863,1.541,11.166.445l.058-.012A14.278,14.278,0,0,1,84.76,64.612Z" transform="translate(-4.757 -4.729)" fill="#fff"/>
      </g>
      <g id="adobe-photoshop-2" transform="translate(-7306.591 -1300.645)">
        <path id="Path_2141" data-name="Path 2141" d="M15.913,0H73.948A15.9,15.9,0,0,1,89.861,15.913V71.7A15.9,15.9,0,0,1,73.948,87.614H15.913A15.9,15.9,0,0,1,0,71.7V15.913A15.9,15.9,0,0,1,15.913,0Z" fill="#001e36"/>
        <g id="Group_627" data-name="Group 627" transform="translate(20.219 22.278)">
          <path id="Path_2142" data-name="Path 2142" d="M54,98.664V60.137c0-.262.112-.412.374-.412.637,0,1.236,0,2.1-.037.9-.037,1.835-.037,2.846-.075s2.1-.037,3.257-.075,2.284-.037,3.407-.037a22.016,22.016,0,0,1,7.713,1.161,13.371,13.371,0,0,1,5.017,3.07A11.921,11.921,0,0,1,81.445,68a14.331,14.331,0,0,1,.861,4.867,13.386,13.386,0,0,1-2.247,7.975,12.827,12.827,0,0,1-6.028,4.568,24.266,24.266,0,0,1-8.424,1.273c-.9,0-1.5,0-1.872-.037s-.9-.037-1.61-.037V98.626a.466.466,0,0,1-.412.524H54.449C54.15,99.151,54,99,54,98.664Zm8.162-31.713v12.58c.524.037,1.011.075,1.46.075h1.984a13.985,13.985,0,0,0,4.306-.674,6.439,6.439,0,0,0,3.07-1.984,5.786,5.786,0,0,0,1.161-3.856,6.163,6.163,0,0,0-.861-3.332,5.43,5.43,0,0,0-2.621-2.134,10.987,10.987,0,0,0-4.418-.749c-.974,0-1.835,0-2.546.037a8.575,8.575,0,0,0-1.535.037Zm43.507,10.3a13.253,13.253,0,0,0-3.594-1.273,19.74,19.74,0,0,0-4.193-.487,7.538,7.538,0,0,0-2.246.262,1.923,1.923,0,0,0-1.161.749,1.984,1.984,0,0,0-.3,1.011,1.665,1.665,0,0,0,.374.974,4.225,4.225,0,0,0,1.273,1.011c.861.449,1.76.861,2.658,1.236a27.118,27.118,0,0,1,5.766,2.733A8.712,8.712,0,0,1,107.2,86.57a8.083,8.083,0,0,1,.861,3.856,8.711,8.711,0,0,1-1.46,4.98,9.382,9.382,0,0,1-4.193,3.332,17.155,17.155,0,0,1-6.777,1.2,25.791,25.791,0,0,1-5.092-.487,15.1,15.1,0,0,1-3.819-1.2.736.736,0,0,1-.412-.711V91.026a.407.407,0,0,1,.15-.337.285.285,0,0,1,.337.037,16.026,16.026,0,0,0,4.643,1.835,17.429,17.429,0,0,0,4.418.562,7.146,7.146,0,0,0,3.108-.524,1.739,1.739,0,0,0,1.011-1.573,1.984,1.984,0,0,0-.9-1.5,15.879,15.879,0,0,0-3.669-1.76,22.908,22.908,0,0,1-5.317-2.7,9.7,9.7,0,0,1-2.846-3.183,8.034,8.034,0,0,1-.861-3.819,8.806,8.806,0,0,1,1.273-4.53A9.229,9.229,0,0,1,91.591,70.1a14.519,14.519,0,0,1,6.627-1.31,32.277,32.277,0,0,1,4.643.337,13.175,13.175,0,0,1,3.22.861.658.658,0,0,1,.374.337,1.877,1.877,0,0,1,.075.449v6.1a.461.461,0,0,1-.187.374,1,1,0,0,1-.674,0Z" transform="translate(-54 -59.5)" fill="#31a8ff"/>
        </g>
      </g>
      <g id="figma-1" transform="translate(-7352.471 -1059.193)">
        <path id="Path_2143" data-name="Path 2143" d="M15.085,230.169a15.09,15.09,0,0,0,15.085-15.085V200H15.085a15.085,15.085,0,1,0,0,30.169Z" transform="translate(0 -140.308)" fill="#0acf83"/>
        <path id="Path_2144" data-name="Path 2144" d="M0,115.085A15.09,15.09,0,0,1,15.085,100H30.169v30.169H15.085A15.09,15.09,0,0,1,0,115.085Z" transform="translate(0 -70.154)" fill="#a259ff"/>
        <path id="Path_2145" data-name="Path 2145" d="M0,15.085A15.09,15.09,0,0,1,15.085,0H30.169V30.169H15.085A15.09,15.09,0,0,1,0,15.085Z" fill="#f24e1e"/>
        <path id="Path_2146" data-name="Path 2146" d="M100,0h15.085a15.085,15.085,0,1,1,0,30.169H100Z" transform="translate(-70.262)" fill="#ff7262"/>
        <path id="Path_2147" data-name="Path 2147" d="M130.169,115.085A15.085,15.085,0,1,1,115.085,100,15.09,15.09,0,0,1,130.169,115.085Z" transform="translate(-70.262 -70.154)" fill="#1abcfe"/>
      </g>
      <g id="visual-studio-code-1" transform="translate(-7508.389 -931.692)">
        <path id="Path_2148" data-name="Path 2148" d="M3.576,253.7s-2.178-1.57.436-3.666l6.089-5.445a2.585,2.585,0,0,1,3.585-.236L69.876,286.9v20.4s-.027,3.2-4.138,2.849Z" transform="translate(-2.725 -222.415)" fill="#2489ca"/>
        <path id="Path_2149" data-name="Path 2149" d="M19.956,498.8,5.473,511.968s-1.488,1.107,0,3.085l6.724,6.117s1.6,1.715,3.957-.236L31.508,509.29Z" transform="translate(-4.622 -454.509)" fill="#1070b3"/>
        <path id="Path_2150" data-name="Path 2150" d="M312.875,65.535l26.562-20.282-.172-20.291s-1.134-4.428-4.919-2.123L299,55.009Z" transform="translate(-271.872 -21.429)" fill="#0877b9"/>
        <path id="Path_2151" data-name="Path 2151" d="M689.281,101.713a3.639,3.639,0,0,0,3.412,1.067l20.7-10.25c2.65-1.815,2.278-4.067,2.278-4.067V27.252c0-2.69-2.741-3.62-2.741-3.62l-17.94-8.691c-3.92-2.435-6.489.438-6.489.438s3.3-2.389,4.919,2.134V98.448a3.692,3.692,0,0,1-.354,1.6c-.472.958-1.5,1.851-3.956,1.477Z" transform="translate(-625.827 -13.962)" fill="#3c99d4"/>
      </g>
      <g id="logo-javascript" transform="translate(-6957.295 -1027.564)">
        <path id="Path_3749" data-name="Path 3749" d="M0,0H89.861V89.861H0Z" fill="#f0db4f"/>
        <path id="Path_3750" data-name="Path 3750" d="M335.348,504.882c-.657-4.1-3.329-7.537-11.242-10.747-2.749-1.263-5.813-2.168-6.726-4.251a4.638,4.638,0,0,1-.162-2.629c.589-2.382,3.432-3.124,5.685-2.441a6.256,6.256,0,0,1,3.653,3.389c3.875-2.509,3.867-2.492,6.573-4.217a16.736,16.736,0,0,0-2.168-2.9c-2.33-2.6-5.506-3.944-10.585-3.841-.879.111-1.767.23-2.646.341a12,12,0,0,0-6.368,3.756c-4.251,4.823-3.039,13.265,2.134,16.739,5.1,3.824,12.582,4.695,13.538,8.271.93,4.379-3.218,5.8-7.341,5.292-3.039-.632-4.729-2.177-6.556-4.985-3.363,1.946-3.363,1.946-6.82,3.935a15.175,15.175,0,0,0,3.056,4.157c6.5,6.6,22.783,6.274,25.7-3.713A12.327,12.327,0,0,0,335.348,504.882Zm-33.632-27.111h-8.4c0,7.256-.034,14.46-.034,21.716,0,4.618.239,8.852-.512,10.149-1.229,2.552-4.413,2.236-5.864,1.741a7.209,7.209,0,0,1-3.1-3.218,4.334,4.334,0,0,0-.478-.768q-3.419,2.087-6.829,4.183a13.5,13.5,0,0,0,4.951,5.668,16.306,16.306,0,0,0,12,1.477,10.606,10.606,0,0,0,6.777-5.309c1.912-3.525,1.5-7.793,1.485-12.514C301.758,493.2,301.716,485.5,301.716,477.772Z" transform="translate(-252.836 -436.438)" fill="#323330"/>
      </g>
      <g id="nodejs-icon" transform="translate(-7480.872 -1286.061)">
        <path id="Path_3751" data-name="Path 3751" d="M37.7,1.543a7.536,7.536,0,0,1,7.356,0q16.8,9.493,33.6,18.979a6.917,6.917,0,0,1,3.494,5.957V64.555a6.992,6.992,0,0,1-3.754,6.087Q61.649,80.082,44.912,89.53a7.322,7.322,0,0,1-7.438-.207q-5.02-2.91-10.046-5.809a5.915,5.915,0,0,1-1.938-1.4c.427-.575,1.19-.647,1.81-.9a23.446,23.446,0,0,0,3.963-1.849.925.925,0,0,1,1.032.062c2.862,1.641,5.7,3.329,8.57,4.955.613.354,1.233-.116,1.756-.408Q59.053,74.694,75.5,65.428a1.087,1.087,0,0,0,.6-1.071q.012-18.84,0-37.682a1.178,1.178,0,0,0-.7-1.175Q58.71,16.1,42.031,6.695a1.159,1.159,0,0,0-1.31,0Q24.037,16.1,7.359,25.506a1.164,1.164,0,0,0-.705,1.169q0,18.84,0,37.684a1.065,1.065,0,0,0,.6,1.057q4.452,2.525,8.91,5.032a6.885,6.885,0,0,0,5.571.746,4.226,4.226,0,0,0,2.736-3.971c.015-12.487-.008-24.975.012-37.46a.94.94,0,0,1,1.024-.96c1.426-.01,2.854-.019,4.28,0a.988.988,0,0,1,.931,1.142c-.006,12.566.015,25.132-.01,37.7,0,3.349-1.372,6.993-4.47,8.632-3.816,1.977-8.533,1.558-12.3-.338-3.264-1.629-6.378-3.552-9.584-5.3A6.976,6.976,0,0,1,.6,64.555V26.48a6.93,6.93,0,0,1,3.613-6.033Q20.958,11,37.7,1.543Z" transform="translate(-0.603 -0.584)" fill="#8cc84b"/>
        <path id="Path_3752" data-name="Path 3752" d="M119.174,85.735c5.195-.334,10.756-.2,15.43,2.361a11.669,11.669,0,0,1,5.69,10.1,1.093,1.093,0,0,1-1.186.8c-1.507,0-3.015.02-4.522-.01a1.165,1.165,0,0,1-1.091-1.13A6.884,6.884,0,0,0,130.2,93.1c-2.78-1.392-6-1.322-9.034-1.293-2.213.117-4.592.309-6.467,1.61A4.1,4.1,0,0,0,113.339,98c.484,1.151,1.813,1.522,2.9,1.864,6.26,1.637,12.894,1.474,19.035,3.629,2.542.878,5.029,2.586,5.9,5.248a11.211,11.211,0,0,1-1.9,10.7,14.988,14.988,0,0,1-8.046,4.336,38.658,38.658,0,0,1-12.145.516c-3.8-.433-7.751-1.431-10.684-4.019a11.212,11.212,0,0,1-3.611-8.844,1.013,1.013,0,0,1,1.109-.893c1.518-.012,3.036-.016,4.553,0a1.064,1.064,0,0,1,1.087,1.052,6.9,6.9,0,0,0,2.567,4.844c3.085,1.99,6.955,1.854,10.487,1.91,2.926-.13,6.211-.169,8.6-2.1a4.75,4.75,0,0,0,1.293-4.537c-.369-1.341-1.771-1.965-2.975-2.374-6.18-1.955-12.888-1.246-19.008-3.456-2.485-.878-4.887-2.538-5.842-5.091a10.427,10.427,0,0,1,2.083-10.849c2.734-2.753,6.681-3.813,10.434-4.192Z" transform="translate(-73.092 -59.641)" fill="#8cc84b"/>
      </g>
      <g id="notion-2" transform="translate(-8047.789 -1269.857)">
        <path id="Path_3753" data-name="Path 3753" d="M44.245,5.356c-14.068,1.041-26.027,2-26.589,2.11a5.167,5.167,0,0,0-3.685,2.758l-.591,1.238.057,29.516.084,29.516.9,1.829c.507,1.012,3.94,5.74,7.681,10.607,7.4,9.594,7.934,10.13,10.747,10.411.817.084,6.95-.2,13.591-.591,6.669-.422,17.359-1.069,23.776-1.434,27.4-1.664,26-1.523,27.571-2.874,1.97-1.632,1.829,1.041,1.913-34.833.057-30.416.028-32.413-.422-33.342-.534-1.041-1.491-1.772-13.984-10.552C76.939,3.865,76.348,3.555,72.6,3.5c-1.546-.055-14.32.788-28.359,1.858ZM75.869,9.21a131.549,131.549,0,0,1,11.085,7.71c.338.338.45.619.281.788-.393.338-53.854,3.518-55.4,3.292a6.972,6.972,0,0,1-2.335-.929c-2.448-1.66-8.525-6.641-8.525-7.005,0-.957-.2-.957,23.635-2.673,4.559-.31,12.043-.872,16.6-1.238,9.874-.788,12.829-.76,14.657.055ZM92.864,24.6a3.656,3.656,0,0,1,.843,1.884c.084.676.141,13.281.084,27.968-.084,25.21-.112,26.786-.591,27.518a2.847,2.847,0,0,1-1.267,1.069c-1.18.479-57.2,3.658-58.352,3.32a4.349,4.349,0,0,1-1.66-.984l-.676-.731-.084-27.18c-.057-19.077,0-27.518.226-28.278a2.957,2.957,0,0,1,.957-1.463c.507-.338,3.827-.619,15.251-1.294,8.02-.45,20.427-1.21,27.546-1.632,16.934-1.043,16.879-1.043,17.722-.2Z" transform="translate(-13.38 -3.496)"/>
        <path id="Path_3754" data-name="Path 3754" d="M204.156,172.628a42.155,42.155,0,0,0-6.094.652,2.857,2.857,0,0,0-1.615,2.183c-.084.936.2,1.049,3.259,1.418l1.332.17v12.1c0,7.2-.113,11.961-.255,11.819-.142-.17-4.166-6.292-8.957-13.6-4.789-7.34-8.758-13.379-8.815-13.434s-3.174.113-6.915.369c-4.592.312-7.114.6-7.625.878a4.035,4.035,0,0,0-1.73,2.92c0,.6,1.077.907,3.345.907h1.19v34.806l-1.927.6c-1.5.453-2.013.737-2.267,1.3-.453.964-.425,1.843.029,1.843.17,0,3.373-.2,7.057-.425,7.285-.425,8.105-.624,8.871-2.126a4.347,4.347,0,0,0,.425-1.077,6.916,6.916,0,0,0-2.183-.737c-1.219-.283-2.438-.566-2.692-.624-.482-.142-.511-1.02-.511-13.209V186.292l8.616,13.52c9.041,14.171,10.176,15.788,11.565,16.5,1.73.907,6.123.283,8.333-1.161l.681-.425.057-19.33.084-19.358,1.5-.283c1.785-.341,2.608-1.162,2.608-2.579,0-.907-.057-.964-.907-.936C210.108,172.259,207.188,172.429,204.156,172.628Z" transform="translate(-139.665 -142.428)"/>
      </g>
      <g id="bxl-react" transform="translate(-7142.579 -958.421)">
        <circle id="Ellipse_5" data-name="Ellipse 5" cx="8.656" cy="8.656" r="8.656" transform="translate(36.277 31.322)" fill="#8be9fd"/>
        <path id="Path_666" data-name="Path 666" d="M24.488,42.146l-1.773-.49C9.545,38.063,1.99,31.953,1.99,24.917S9.549,11.771,22.715,8.178l1.773-.485.5,1.9a99.4,99.4,0,0,0,5.1,14.465l.382.863-.382.863a98.667,98.667,0,0,0-5.1,14.475l-.5,1.891ZM21.9,12.59C11.892,15.636,5.747,20.281,5.747,24.917S11.888,34.193,21.9,37.233a106.951,106.951,0,0,1,4.421-12.317A103.641,103.641,0,0,1,21.9,12.59ZM69.353,42.146l-.494-1.9a100.011,100.011,0,0,0-5.1-14.47l-.382-.858.382-.868a99.811,99.811,0,0,0,5.1-14.47l.494-1.891,1.773.485c13.175,3.593,20.725,9.7,20.725,16.744S84.3,38.063,71.126,41.656l-1.773.49Zm-1.84-17.229a104.928,104.928,0,0,1,4.43,12.317C81.953,34.193,88.1,29.543,88.1,24.917S81.958,15.64,71.943,12.59a105.3,105.3,0,0,1-4.43,12.326Z" transform="translate(-1.99 15.044)" fill="#8be9fd"/>
        <path id="Path_667" data-name="Path 667" d="M8.342,30.87l-.469-1.751C4.351,16.066,5.417,6.716,10.8,3.457c5.267-3.209,13.74.584,22.614,10.167l1.211,1.311-1.211,1.306A87.77,87.77,0,0,0,24.8,27.346l-.482.727-.836.072A79.933,79.933,0,0,0,10.023,30.43l-1.68.44ZM15.089,6.052a4.777,4.777,0,0,0-2.512.651c-3.531,2.141-4.154,9.6-1.723,19.661a84.944,84.944,0,0,1,11.5-1.872,93.815,93.815,0,0,1,7.305-9.53c-5.557-5.687-10.8-8.91-14.567-8.91Zm34.1,76.237c-5.066,0-11.574-4.022-18.329-11.321l-1.207-1.306,1.207-1.3a88.258,88.258,0,0,0,8.618-11.119l.478-.718.827-.085a79.226,79.226,0,0,0,13.467-2.276l1.684-.449.473,1.755c3.505,13.044,2.444,22.408-2.934,25.667a8.107,8.107,0,0,1-4.286,1.154ZM34.629,69.631c5.552,5.687,10.8,8.915,14.563,8.915a4.8,4.8,0,0,0,2.512-.651c3.535-2.146,4.162-9.615,1.723-19.679A84.068,84.068,0,0,1,41.921,60.1a91.456,91.456,0,0,1-7.292,9.534Z" transform="translate(12.79 -2.339)" fill="#8be9fd"/>
        <path id="Path_668" data-name="Path 668" d="M55.94,30.868l-1.684-.444a79.251,79.251,0,0,0-13.467-2.285l-.827-.076-.478-.727A87.02,87.02,0,0,0,30.864,16.23l-1.207-1.306,1.207-1.3C39.734,4.043,48.2.25,53.479,3.455c5.382,3.263,6.452,12.613,2.934,25.662ZM41.922,24.49a84.1,84.1,0,0,1,11.506,1.872C55.863,16.3,55.24,8.842,51.705,6.7,48.191,4.555,41.577,7.832,34.63,14.96a91.882,91.882,0,0,1,7.292,9.53ZM15.09,82.287A8.127,8.127,0,0,1,10.8,81.133C5.418,77.875,4.352,68.515,7.87,55.467l.461-1.755,1.684.449a79.453,79.453,0,0,0,13.467,2.276l.827.085.482.718a87.441,87.441,0,0,0,8.614,11.119l1.211,1.3-1.211,1.306c-6.751,7.3-13.258,11.321-18.316,11.321ZM10.855,58.218C8.424,68.282,9.047,75.751,12.578,77.9c3.518,2.11,10.111-1.145,17.079-8.268a94.309,94.309,0,0,1-7.305-9.53,84.162,84.162,0,0,1-11.5-1.881Z" transform="translate(12.789 -2.337)" fill="#8be9fd"/>
        <path id="Path_669" data-name="Path 669" d="M29.667,46.663c-3.331,0-6.75-.141-10.183-.427l-.95-.082-.548-.786q-2.9-4.176-5.46-8.578-2.535-4.41-4.708-9.014l-.407-.858.407-.868q2.175-4.6,4.708-9.01c1.683-2.89,3.52-5.78,5.46-8.583l.548-.776.95-.087a121.943,121.943,0,0,1,20.356,0l.941.092.548.776A121.887,121.887,0,0,1,51.512,26.054l.4.868-.4.858A119.973,119.973,0,0,1,41.329,45.373l-.548.786-.941.082c-3.423.276-6.847.422-10.173.422Zm-8.893-4.384a117.022,117.022,0,0,0,17.782,0,118.652,118.652,0,0,0,8.884-15.362,115.969,115.969,0,0,0-8.883-15.362,115.781,115.781,0,0,0-17.782,0,115.133,115.133,0,0,0-8.884,15.362,120.352,120.352,0,0,0,8.884,15.362Z" transform="translate(15.266 13.044)" fill="#8be9fd"/>
      </g>
      <g id="Group_865" data-name="Group 865" transform="translate(-6861.307 -1199.288)">
        <rect id="Rectangle_758" data-name="Rectangle 758" width="89.861" height="89.861" transform="translate(0)"/>
        <g id="Group_845" data-name="Group 845" transform="translate(28.965 20.276)">
          <path id="Path_3747" data-name="Path 3747" d="M-4424.945,6521.941v15.947l15.806,16.42v-16.42h16.5l-16.5-15.947Z" transform="translate(4424.945 -6505.499)" fill="#fff"/>
          <path id="Path_3748" data-name="Path 3748" d="M-4424.945,6510.609l16.217,16.512H-4393v-16.512Z" transform="translate(4424.945 -6510.609)" fill="#fff"/>
        </g>
      </g>
    </g>
  </g>
</svg>
